<svg width="27" height="26" viewBox="0 0 27 26" fill="none" xmlns="http://www.w3.org/2000/svg">
<path d="M12.8855 3.0296C13.1736 2.44592 13.3177 2.15409 13.5133 2.06084C13.6834 1.97972 13.8811 1.97972 14.0512 2.06084C14.2468 2.15409 14.3908 2.44592 14.679 3.0296L17.4123 8.56706C17.4974 8.73937 17.5399 8.82553 17.602 8.89242C17.6571 8.95165 17.7231 8.99964 17.7964 9.03373C17.8792 9.07223 17.9742 9.08613 18.1644 9.11392L24.2785 10.0076C24.9223 10.1017 25.2442 10.1487 25.3932 10.306C25.5228 10.4428 25.5838 10.6308 25.5591 10.8177C25.5308 11.0324 25.2977 11.2594 24.8316 11.7134L20.409 16.021C20.2712 16.1553 20.2022 16.2224 20.1578 16.3023C20.1184 16.373 20.0931 16.4507 20.0834 16.5311C20.0724 16.6219 20.0886 16.7167 20.1212 16.9064L21.1647 22.9906C21.2747 23.6323 21.3298 23.9532 21.2263 24.1436C21.1364 24.3092 20.9764 24.4254 20.7911 24.4598C20.578 24.4993 20.2899 24.3478 19.7136 24.0447L14.2477 21.1702C14.0774 21.0807 13.9922 21.0359 13.9025 21.0183C13.8231 21.0027 13.7414 21.0027 13.662 21.0183C13.5723 21.0359 13.4871 21.0807 13.3168 21.1702L7.85088 24.0447C7.27462 24.3478 6.98649 24.4993 6.77344 24.4598C6.58808 24.4254 6.42813 24.3092 6.33815 24.1436C6.23473 23.9532 6.28976 23.6323 6.39982 22.9906L7.44333 16.9064C7.47587 16.7167 7.49213 16.6219 7.48113 16.5311C7.47138 16.4507 7.44612 16.373 7.40673 16.3023C7.36225 16.2224 7.29332 16.1553 7.15546 16.021L2.73293 11.7134C2.26681 11.2594 2.03374 11.0324 2.00538 10.8177C1.98071 10.6308 2.04167 10.4428 2.17129 10.306C2.32027 10.1487 2.64219 10.1017 3.28603 10.0076L9.40012 9.11392C9.59026 9.08613 9.68533 9.07223 9.76812 9.03373C9.84143 8.99964 9.90743 8.95165 9.96246 8.89242C10.0246 8.82553 10.0671 8.73937 10.1522 8.56706L12.8855 3.0296Z" fill="#FBBF24" stroke="#FBBF24" stroke-width="2.5" stroke-linecap="round" stroke-linejoin="round"/>
</svg>
