<svg width="24" height="25" viewBox="0 0 24 25" fill="none" xmlns="http://www.w3.org/2000/svg">
<path d="M6.196 17.985C7.046 17.373 7.948 16.8893 8.902 16.534C9.85534 16.178 10.888 16 12 16C13.112 16 14.1447 16.178 15.098 16.534C16.0513 16.89 16.9533 17.3733 17.804 17.984C18.464 17.3007 18.995 16.494 19.397 15.564C19.799 14.6327 20 13.6113 20 12.5C20 10.2833 19.221 8.39567 17.663 6.837C16.105 5.27833 14.2173 4.49933 12 4.5C9.78267 4.50067 7.895 5.28 6.337 6.838C4.779 8.396 4 10.2833 4 12.5C4 13.6113 4.201 14.6327 4.603 15.564C5.005 16.4947 5.536 17.3013 6.196 17.984M12 13C11.158 13 10.4473 12.7107 9.868 12.132C9.28867 11.5533 8.99934 10.8427 9 10C9.00067 9.15733 9.29 8.44667 9.868 7.868C10.446 7.28933 11.1567 7 12 7C12.8433 7 13.554 7.28933 14.132 7.868C14.71 8.44667 14.9993 9.15733 15 10C15.0007 10.8427 14.7113 11.5533 14.132 12.132C13.5527 12.7107 12.842 13 12 13ZM12 21.5C10.7447 21.5 9.56967 21.2663 8.475 20.799C7.38034 20.3317 6.42767 19.693 5.617 18.883C4.80634 18.073 4.16767 17.1203 3.701 16.025C3.23433 14.9297 3.00067 13.7547 3 12.5C2.99933 11.2453 3.233 10.0703 3.701 8.975C4.169 7.87967 4.80767 6.927 5.617 6.117C6.42767 5.307 7.38034 4.66833 8.475 4.201C9.56967 3.73367 10.7447 3.5 12 3.5C13.2553 3.5 14.4303 3.73367 15.525 4.201C16.6197 4.66833 17.5723 5.307 18.383 6.117C19.1937 6.927 19.8323 7.87967 20.299 8.975C20.7657 10.0703 20.9993 11.2453 21 12.5C21.0007 13.7547 20.767 14.9297 20.299 16.025C19.831 17.1203 19.1923 18.073 18.383 18.883C17.5723 19.693 16.6197 20.3317 15.525 20.799C14.4303 21.2663 13.2553 21.5 12 21.5Z" fill="#686869"/>
</svg>
