<svg width="24" height="25" viewBox="0 0 24 25" fill="none" xmlns="http://www.w3.org/2000/svg">
<path d="M8.5 14.5C8.83152 14.5 9.14946 14.3683 9.38388 14.1339C9.6183 13.8995 9.75 13.5815 9.75 13.25C9.75 12.9185 9.6183 12.6005 9.38388 12.3661C9.14946 12.1317 8.83152 12 8.5 12C8.16848 12 7.85054 12.1317 7.61612 12.3661C7.3817 12.6005 7.25 12.9185 7.25 13.25C7.25 13.5815 7.3817 13.8995 7.61612 14.1339C7.85054 14.3683 8.16848 14.5 8.5 14.5ZM8.5 18C8.83152 18 9.14946 17.8683 9.38388 17.6339C9.6183 17.3995 9.75 17.0815 9.75 16.75C9.75 16.4185 9.6183 16.1005 9.38388 15.8661C9.14946 15.6317 8.83152 15.5 8.5 15.5C8.16848 15.5 7.85054 15.6317 7.61612 15.8661C7.3817 16.1005 7.25 16.4185 7.25 16.75C7.25 17.0815 7.3817 17.3995 7.61612 17.6339C7.85054 17.8683 8.16848 18 8.5 18ZM13.25 13.25C13.25 13.5815 13.1183 13.8995 12.8839 14.1339C12.6495 14.3683 12.3315 14.5 12 14.5C11.6685 14.5 11.3505 14.3683 11.1161 14.1339C10.8817 13.8995 10.75 13.5815 10.75 13.25C10.75 12.9185 10.8817 12.6005 11.1161 12.3661C11.3505 12.1317 11.6685 12 12 12C12.3315 12 12.6495 12.1317 12.8839 12.3661C13.1183 12.6005 13.25 12.9185 13.25 13.25ZM12 18C12.3315 18 12.6495 17.8683 12.8839 17.6339C13.1183 17.3995 13.25 17.0815 13.25 16.75C13.25 16.4185 13.1183 16.1005 12.8839 15.8661C12.6495 15.6317 12.3315 15.5 12 15.5C11.6685 15.5 11.3505 15.6317 11.1161 15.8661C10.8817 16.1005 10.75 16.4185 10.75 16.75C10.75 17.0815 10.8817 17.3995 11.1161 17.6339C11.3505 17.8683 11.6685 18 12 18ZM16.75 13.25C16.75 13.5815 16.6183 13.8995 16.3839 14.1339C16.1495 14.3683 15.8315 14.5 15.5 14.5C15.1685 14.5 14.8505 14.3683 14.6161 14.1339C14.3817 13.8995 14.25 13.5815 14.25 13.25C14.25 12.9185 14.3817 12.6005 14.6161 12.3661C14.8505 12.1317 15.1685 12 15.5 12C15.8315 12 16.1495 12.1317 16.3839 12.3661C16.6183 12.6005 16.75 12.9185 16.75 13.25Z" fill="#0E2C53"/>
<path fill-rule="evenodd" clip-rule="evenodd" d="M8 3.75C8.19891 3.75 8.38968 3.82902 8.53033 3.96967C8.67098 4.11032 8.75 4.30109 8.75 4.5V5.25H15.25V4.5C15.25 4.30109 15.329 4.11032 15.4697 3.96967C15.6103 3.82902 15.8011 3.75 16 3.75C16.1989 3.75 16.3897 3.82902 16.5303 3.96967C16.671 4.11032 16.75 4.30109 16.75 4.5V5.258C16.902 5.262 17.0437 5.26933 17.175 5.28C17.555 5.31 17.911 5.378 18.248 5.55C18.7656 5.81367 19.1863 6.23445 19.45 6.752C19.622 7.089 19.69 7.445 19.72 7.825C19.75 8.19 19.75 8.635 19.75 9.17V16.83C19.75 17.365 19.75 17.81 19.72 18.175C19.69 18.555 19.622 18.911 19.45 19.248C19.1866 19.7654 18.7662 20.1862 18.249 20.45C17.911 20.622 17.555 20.69 17.175 20.72C16.81 20.75 16.365 20.75 15.831 20.75H8.17C7.635 20.75 7.19 20.75 6.825 20.72C6.445 20.69 6.089 20.622 5.752 20.45C5.23475 20.1869 4.81401 19.7668 4.55 19.25C4.378 18.912 4.31 18.556 4.28 18.176C4.25 17.811 4.25 17.366 4.25 16.832V9.17C4.25 8.635 4.25 8.19 4.28 7.825C4.31 7.445 4.378 7.089 4.55 6.752C4.81367 6.23445 5.23445 5.81367 5.752 5.55C6.089 5.378 6.445 5.31 6.825 5.28C6.95633 5.26933 7.098 5.262 7.25 5.258V4.5C7.25 4.40151 7.2694 4.30398 7.30709 4.21299C7.34478 4.12199 7.40003 4.03931 7.46967 3.96967C7.53931 3.90003 7.62199 3.84478 7.71299 3.80709C7.80398 3.7694 7.90151 3.75 8 3.75ZM18.25 10.75H5.75V16.8C5.75 17.372 5.75 17.757 5.775 18.052C5.798 18.34 5.84 18.477 5.886 18.567C6.006 18.803 6.197 18.994 6.433 19.114C6.523 19.16 6.66 19.202 6.947 19.225C7.243 19.249 7.627 19.25 8.2 19.25H15.8C16.372 19.25 16.757 19.25 17.052 19.225C17.34 19.202 17.477 19.16 17.567 19.114C17.8026 18.9941 17.9941 18.8026 18.114 18.567C18.16 18.477 18.202 18.34 18.225 18.052C18.249 17.757 18.25 17.372 18.25 16.8V10.75ZM10.5 7.5C10.3011 7.5 10.1103 7.57902 9.96967 7.71967C9.82902 7.86032 9.75 8.05109 9.75 8.25C9.75 8.44891 9.82902 8.63968 9.96967 8.78033C10.1103 8.92098 10.3011 9 10.5 9H13.5C13.6989 9 13.8897 8.92098 14.0303 8.78033C14.171 8.63968 14.25 8.44891 14.25 8.25C14.25 8.05109 14.171 7.86032 14.0303 7.71967C13.8897 7.57902 13.6989 7.5 13.5 7.5H10.5Z" fill="#0E2C53"/>
</svg>
